<svg width="1411" height="419" viewBox="0 0 1411 419" fill="none" xmlns="http://www.w3.org/2000/svg">
<path d="M1181.19 174.274C1160.03 174.274 1142.4 191.913 1142.4 213.08C1142.4 232.131 1156.51 248.359 1174.84 251.181C1206.57 261.059 1229.84 273.759 1229.84 300.57C1229.84 326.676 1206.57 355.605 1149.45 355.605C1107.14 355.605 1071.18 340.082 1042.97 318.915C1037.33 314.682 1030.28 312.565 1023.23 312.565C1004.89 312.565 988.671 328.087 988.671 347.138C988.671 354.193 990.786 361.249 995.723 366.894C1023.23 399.35 1086.69 418.4 1145.93 418.4C1255.23 418.4 1303.18 360.544 1303.18 292.104C1303.18 225.075 1256.64 196.852 1205.16 179.213C1203.75 180.624 1188.24 174.274 1181.19 174.274Z" fill="#6160AB"/>
<path d="M1141.7 0C1052.14 0 993.608 51.5063 993.608 119.241C993.608 216.609 1093.74 228.603 1163.56 248.359C1165.67 249.065 1167.79 249.77 1169.9 250.476C1153.68 245.537 1142.4 230.72 1142.4 213.081C1142.4 191.914 1160.03 174.275 1181.19 174.275C1181.89 174.275 1183.3 174.275 1184.71 174.275C1126.18 158.047 1068.36 150.991 1068.36 113.596C1068.36 83.9623 1094.45 63.5009 1136.06 63.5009C1169.2 63.5009 1202.34 71.9677 1231.26 91.018C1237.6 95.2514 1243.95 97.368 1251 97.368C1268.63 97.368 1286.26 82.5512 1286.26 64.2065C1286.26 57.8564 1284.14 50.0952 1279.21 44.4506C1251.71 15.5224 1190.35 0 1141.7 0Z" fill="#3BC6F4"/>
<path d="M1181.19 174.274C1160.03 174.274 1142.4 191.913 1142.4 213.08C1142.4 230.719 1154.39 245.536 1169.9 250.475C1172.72 251.181 1174.84 251.181 1177.66 251.181C1198.82 251.181 1215.74 234.247 1215.74 213.08C1215.74 196.147 1204.46 181.33 1188.94 176.391C1187.53 175.685 1185.42 175.685 1184.01 174.98C1183.3 174.98 1182.6 174.274 1181.19 174.274Z" fill="#6161AB"/>
<path d="M0 46.5681V373.245C0 352.784 16.9245 335.85 37.3749 335.85H74.7498V83.9631H37.3749C16.9245 83.9631 0 67.0295 0 46.5681Z" fill="#527FC0"/>
<path d="M336.374 247.654C315.924 247.654 298.999 230.72 298.999 210.259C298.999 282.932 251.047 336.555 184.054 336.555H75.4552V373.95C75.4552 394.411 58.5307 411.345 38.0803 411.345H186.169H186.875C293.358 409.934 373.749 323.855 373.749 210.259C373.749 230.72 356.825 247.654 336.374 247.654Z" fill="#6160AB"/>
<path d="M75.455 373.245V335.85H37.3749C16.9245 335.85 0 352.783 0 373.245C0 393.706 16.9245 410.64 37.3749 410.64C58.5305 410.64 75.455 394.412 75.455 373.245Z" fill="#3B4EA1"/>
<path d="M186.169 9.17236H43.7212C62.056 11.9946 75.4546 27.5171 75.4546 46.5674V83.9623H184.758C251.046 83.9623 299.704 136.88 299.704 210.259C299.704 189.797 316.628 172.864 337.079 172.864C357.529 172.864 374.454 189.797 374.454 210.259C373.748 95.9569 293.357 9.87793 186.169 9.17236Z" fill="#3BC6F4"/>
<path d="M37.3749 83.9624H74.7498V46.5674C74.7498 27.5171 60.646 11.9946 43.0164 9.17236H37.3749C16.9245 9.17236 0 25.4004 0 46.5674C0 67.0288 16.9245 83.9624 37.3749 83.9624Z" fill="#3B4EA1"/>
<path d="M373.749 209.553C373.749 189.091 356.824 172.158 336.374 172.158C315.923 172.158 298.999 189.091 298.999 209.553C298.999 230.014 315.923 246.948 336.374 246.948C356.824 247.653 373.749 230.72 373.749 209.553Z" fill="#3B4EA1"/>
<path d="M859.622 270.937L648.066 22.578C634.668 7.05557 610.692 4.93887 595.177 18.3446C579.663 31.7504 577.548 55.7396 590.946 71.262L868.085 397.939C862.443 391.589 859.622 383.122 859.622 373.95V270.937Z" fill="#6160AB"/>
<path d="M896.997 9.17236C876.547 9.17236 859.622 26.1059 859.622 46.5674V270.937L925.91 349.255C932.257 356.311 935.077 365.483 935.077 374.655C935.077 373.95 935.077 373.95 935.077 373.244V46.5674C934.372 26.1059 917.448 9.17236 896.997 9.17236Z" fill="#527FC0"/>
<path d="M628.321 216.608C607.871 216.608 590.947 233.542 590.947 254.003V372.539C590.947 393 607.871 409.933 628.321 409.933C648.772 409.933 665.696 393 665.696 372.539V254.003C665.696 233.542 648.772 216.608 628.321 216.608Z" fill="#3BC6F4"/>
<path d="M927.32 395.822C927.32 395.116 928.026 395.116 928.026 394.411C928.731 393.705 928.731 393 929.436 392.294C929.436 391.588 930.141 391.588 930.141 390.883C930.141 390.177 930.846 389.472 930.846 388.766C930.846 388.061 931.552 388.061 931.552 387.355C931.552 386.65 932.257 385.944 932.257 385.944C932.257 385.238 932.962 384.533 932.962 383.827C932.962 383.122 932.962 382.416 933.667 382.416C933.667 381.711 933.667 381.005 934.372 380.299C934.372 379.594 934.372 378.888 934.372 378.183C934.372 377.477 934.372 376.772 934.372 376.772C934.372 376.066 934.372 375.36 934.372 374.655C934.372 365.483 931.552 356.31 925.205 349.255L858.917 270.937V373.949C858.917 383.122 862.443 391.588 867.379 397.939L868.085 398.644C868.79 399.35 869.495 400.055 870.2 400.761C870.2 400.761 870.905 401.466 871.611 401.466C872.316 402.172 873.021 402.172 873.726 402.878C874.431 403.583 874.431 403.583 875.137 403.583C875.842 404.289 876.547 404.289 877.252 404.994C877.957 404.994 877.957 405.7 878.662 405.7C879.368 406.405 880.073 406.405 880.778 406.405C881.483 406.405 881.483 407.111 882.188 407.111C882.894 407.111 883.599 407.816 884.304 407.816C885.009 407.816 885.009 407.816 885.714 408.522C886.42 408.522 887.83 409.228 888.535 409.228H889.24C890.651 409.228 891.356 409.933 892.766 409.933C894.177 409.933 895.587 409.933 896.997 409.933C898.408 409.933 899.113 409.933 900.523 409.933C901.228 409.933 901.228 409.933 901.934 409.933C902.639 409.933 903.344 409.933 904.049 409.228C904.754 409.228 904.754 409.228 905.46 409.228C906.165 409.228 906.87 408.522 907.575 408.522C908.28 408.522 908.28 408.522 908.986 407.816C909.691 407.816 910.396 407.111 911.101 407.111C911.806 407.111 911.806 407.111 912.511 406.405C913.217 406.405 913.922 405.7 914.627 405.7C914.627 405.7 915.332 405.7 915.332 404.994C916.037 404.289 916.743 404.289 917.448 403.583L918.153 402.878C918.858 402.172 919.563 402.172 920.269 401.466L920.974 400.761C921.679 400.055 921.679 400.055 922.384 399.35C923.089 398.644 923.089 398.644 923.794 397.939C924.5 397.233 924.5 397.233 925.205 396.527C925.91 395.822 925.91 395.822 926.615 395.116C926.615 396.527 927.32 395.822 927.32 395.822Z" fill="#3B4EA1"/>
<path d="M474.59 9.17236C454.14 9.17236 437.216 26.1059 437.216 46.5674V371.833C437.216 392.295 454.14 409.228 474.59 409.228C495.041 409.228 511.965 392.295 511.965 371.833V46.5674C511.965 26.1059 495.041 9.17236 474.59 9.17236Z" fill="#527FC0"/>
<path d="M1216.45 213.081C1216.45 234.248 1199.52 251.182 1178.37 251.182C1157.21 251.182 1140.29 234.248 1140.29 213.081C1140.29 191.914 1157.21 174.98 1178.37 174.98C1199.52 174.275 1216.45 191.914 1216.45 213.081Z" fill="#3B4EA1"/>
<path d="M1372.29 8.46679C1389.22 8.46679 1402.62 21.8725 1402.62 38.8061C1402.62 55.7397 1389.22 69.1454 1372.29 69.1454C1355.37 69.1454 1341.97 55.7397 1341.97 38.8061C1341.26 21.8725 1355.37 8.46679 1372.29 8.46679ZM1372.29 0C1351.14 0 1334.21 16.9336 1334.21 38.1005C1334.21 59.2675 1351.14 76.2011 1372.29 76.2011C1393.45 76.2011 1410.37 59.2675 1410.37 38.1005C1410.37 17.6391 1393.45 0 1372.29 0Z" fill="#3BC6F4"/>
<path d="M1370.18 42.3335H1366.65V57.1504C1366.65 59.2671 1364.54 59.9727 1362.42 59.9727C1360.3 59.9727 1358.19 59.2671 1358.19 57.1504V22.5776C1358.19 18.3442 1361.01 16.9331 1363.83 16.9331H1374.41C1381.46 16.9331 1387.1 21.8721 1387.1 29.6333C1387.1 35.2778 1383.58 38.8057 1380.05 40.9224C1382.17 42.3335 1383.58 45.1558 1384.99 47.2725C1386.4 50.0947 1387.1 53.6226 1389.22 56.4448C1390.63 59.2671 1387.81 60.6782 1385.69 60.6782C1382.87 60.6782 1382.17 59.9727 1381.46 59.2671C1379.34 57.1504 1378.64 52.2114 1376.52 48.6836C1375.11 44.4502 1373.7 42.3335 1370.18 42.3335ZM1379.34 29.6333C1379.34 26.1055 1377.23 23.9888 1374.41 23.9888H1367.36C1366.65 23.9888 1366.65 23.9888 1366.65 24.6943V35.2778H1374.41C1377.23 35.2778 1379.34 33.1611 1379.34 29.6333Z" fill="#3BC6F4"/>
</svg>
