<svg height="1024" viewBox="0 0 1024 1024" width="1024" xmlns="http://www.w3.org/2000/svg"><g fill="none" fill-rule="evenodd"><path d="m0 0h1024v1024h-1024z" fill="#000"/><g fill="#f7df1e"><path d="m269.246984 855.728762 78.364445-47.425016c15.118222 26.804825 28.871111 49.483175 61.858539 49.483175 31.620064 0 51.555556-12.368864 51.555556-60.481016v-327.192381h96.229587v328.553651c0 99.669333-58.422857 145.03619-143.660698 145.03619-76.980826 0-121.665016-39.868952-144.347429-87.98273"/><path d="m609.52381 845.417651 78.354285-45.366857c20.626286 33.684317 47.433143 58.428952 94.860191 58.428952 39.873016 0 65.298285-19.935086 65.298285-47.431111 0-32.993524-26.118095-44.680127-70.111492-63.920762l-24.051809-10.317206c-69.428826-29.551746-115.484445-66.669715-115.484445-145.030096 0-72.173714 54.989207-127.166984 140.913778-127.166984 61.175873 0 105.167238 21.310984 136.783238 76.988953l-74.924698 48.113777c-16.497778-29.553777-34.364953-41.238349-61.85854-41.238349-28.182349 0-46.055619 17.871238-46.055619 41.238349 0 28.871112 17.87327 40.557715 59.111619 58.430985l24.055873 10.309079c81.798095 35.057778 127.853714 70.798222 127.853714 151.216762 0 86.613333-68.049269 134.038349-159.467682 134.038349-89.358222 0-147.098413-42.613841-175.276698-98.293841"/><path d="m240.024744 0c3.242703 0 5.850051 2.00115131 5.85004 4.47972924 0 1.78373512-1.350219 3.30398159-3.3231 4.02828366v10.001256c4.564522 7.1017474 51.665288 80.3872507 52.961907 82.2325491h25.407868l-4.257722-5.660433v-2.500314h-1.869243l-4.846188-6.4244179h37.211797v-11.5639523c-2.450576-.7136785-4.188491-2.5514982-4.188491-4.7228153 0-2.7883724 2.886977-5.0700478 6.438507-5.0700811 3.55153 0 6.40389 2.2817087 6.40389 5.0700811 0 2.1713171-1.737914 4.0091257-4.18849 4.7228153v37.7825222l29.769437 25.10732h17.515506v5.070081h-6.784662v49.277022c2.908189-.99947 5.799751-2.001651 8.723137-2.986486v5.4868c-2.86151 2.035111-5.778383 3.965687-8.723137 6.042425v26.739469h10.419303l2.942328-8.612192c-1.603528-.78102-2.665403-2.138647-2.665403-3.715745 0-2.437206 2.537807-4.410276 5.676963-4.410276 3.139144 0 5.711578 1.97307 5.711578 4.410276 0 2.044179-1.827473 3.734692-4.257722 4.236644l-19.765522 69.696252c-12.395506 10.816625-38.27448 38.572566-14.157791 49.9021l-5.85004 20.662317h-125.135485v27.468728c7.957629 2.360752 13.707788 9.15306 13.707788 17.189658 0 9.991666-8.905941 18.127277-19.869369 18.127277-10.963427 0-19.834753-8.135622-19.834753-18.127277 0-8.036587 5.750159-14.828917 13.707787-17.189658v-27.468728h-114.577718c-.19212-4.682865-11.350934-21.792059-17.861663-28.85779-13.2450234-14.374117-29.2424933-32.405625-31.1886779-38.199242-2.2814078-6.791564.5192344-16.66876.5192344-16.66876l-36.1387125-37.713069 4.1192594-4.097737v-16.56458h-37.6271844l4.63849375-6.146606h1.2461625v-1.632149l3.63464062-4.826995-3.63464062-5.070081v-2.222502h-1.59231875l-4.0154125-5.625706h37.3502594v-9.584537c-2.0307132-.720435-3.4961782-2.586425-3.4961782-4.792268 0-2.8271 2.3969299-5.139524 5.3308063-5.139535 2.1258092 0 3.9270734 1.212753 4.7769562 2.95176h19.38475c.5657578-10.188835 4.7450102-20.405285 8.1692875-30.59412h-8.8616v-4.479729h16.2001125l-.2423093-.277813 33.3002316-29.725955v-5.208988h-42.681066l4.707725-6.1813316h1.5923187v-2.0835949l4.1884907-5.4868002-4.1884907-5.5215267v-2.0488685h-1.5577031l-5.0192656-6.5980508h43.096453v-10.0359825c-2.272391-.5223434-3.911566-1.9836825-3.911566-3.7157444 0-2.1687279 2.546082-3.9240928 5.711579-3.9241039 3.165496 0 5.746193 1.7553982 5.746193 3.9241039 0 1.6265487-1.438171 3.0148675-3.496178 3.6115646v33.997325h64.177369l38.21565-51.3606166.692312-1.1112507h-26.446337l4.534647-5.9035191h3.011559v-3.9241039l3.911566-5.0700812-3.911566-5.0700811v-3.333752h-2.561556l-4.98465-6.4591445h44.619541l.415387-.6945317v-9.13309139c-2.265634-.62308936-3.911566-2.25646114-3.911566-4.20191657 0-2.47855571 2.641954-4.47971813 5.884657-4.47972924zm-11.180847 24.1697019-6.680816 6.667504-6.6462-6.667504-2.353862 2.3614077 6.6462 6.667504-6.6462 6.667504 2.353862 2.3614076 6.6462-6.6675039 6.680816 6.6675039 2.353862-2.3614076-6.6462-6.667504 6.6462-6.667504zm13.984712 1.3543368-.276925.2430861v30.0732211c2.64469.8032342 4.465416 2.379321 4.465416 4.2019166 0 1.8226066-1.820726 3.3986823-4.465416 4.2019165v1.7016026l31.223294 34.7960364h16.06165zm-7.303897 22.745912h-11.146231l-38.734884 52.4718673h15.473184l34.407931-34.4834971v-1.7710558c-3.099333-.7015103-5.29619-2.4339612-5.29619-4.4450026 0-2.0110304 2.196857-3.7434813 5.29619-4.4450027zm7.026972 23.1973576v29.2745097h25.061713zm-7.026971.173633-28.038657 29.1008767h28.038657zm-130.743216 10.2096154-6.6808158 6.667504-6.6462-6.667504-2.3538625 2.3614077 6.6462 6.667504-6.6462 6.667504 2.3538625 2.3614076 6.6462-6.667504 6.6808158 6.667504 2.353862-2.3614076-6.6462-6.667504 6.6462-6.667504zm237.774728 9.8276231-6.680816 6.667504-6.6462-6.667504-2.353862 2.3614077 6.6462 6.6675035-6.6462 6.667504 2.353862 2.361408 6.6462-6.667504 6.680816 6.667504 2.353862-2.361408-6.6462-6.667504 6.6462-6.6675035zm-24.161706 12.9877422h-24.680941l.034616 28.197986c.012871 12.230235 6.73568 23.661182 10.661612 28.302165 2.547334-8.707805 5.960955-16.213825 7.096203-18.613449h-8.826984v-5.070081h15.265491l28.280965-23.857163h-34.581009l3.392331-4.479729h1.626934v-2.187775zm-28.384813 0h-14.296253c-11.958441 18.187728-16.290711 61.145768 5.988503 84.732863h21.184763c-.985864-4.15201-1.614429-8.363895-1.453856-12.050124.152142-3.492806.765431-7.157188 1.592318-10.765241-2.417644-3.330696-12.757569-15.480211-12.773165-33.580606l-.034616-27.920173zm-22.396309 0h-25.061713v7.535669c18.193386-.621579 23.517335-4.934654 25.061713-7.535669zm-32.088684 0h-15.577032c.887633 2.105075 4.129395 6.476847 15.577032 7.396762zm-19.523213 0h-20.457834c.920365 2.252972 3.385352 5.614705 10.073146 5.59098 7.119853-.025959 9.397727-3.174777 10.384688-5.59098zm-25.373253 0h-7.857747l-26.100181 35.351662h1.66155v4.479729h-4.465416c4.831533 16.356943 10.263195 31.085548 16.027034 44.901472h21.253994c-5.580703-7.733993-16.272002-25.193997-15.750109-44.901472.571872-21.366939 11.886119-35.958238 15.230875-39.831391zm-13.015475 0h-58.431175v5.000628l31.465603 30.351034h.692312zm-58.431175 11.216686v24.134976h25.927103zm-6.992356.729259-26.6886473 23.405717h26.6886473zm239.436278 1.632149v19.238527h22.811697zm-4.465416.451446-22.257847 18.787081h22.257847zm41.815675 23.857162h-.415387c-1.443588 1.481686-16.435134 17.286871-16.096266 34.934943.164837 8.483888 5.384729 15.178095 8.342366 18.335636 2.704261-.988213 5.429447-1.928309 8.169287-2.882306zm-9.380834 0h-25.961719c.974887 1.63715 4.456864 6.480503 11.977006 6.736957 7.02602.239575 13.984713-6.736957 13.984713-6.736957zm-34.3387 0h-24.819403c.452584 1.19934 2.307981 4.753731 8.273134 5.174261 6.768911.477193 15.256729-4.40802 16.546269-5.174261zm-198.105222 1.944689h-.761544-12.773166c.751464 7.014614 9.76606 2.958449 12.911629.520899zm-19.211672 0h-8.757753v7.292582c3.387634-1.234799 6.515835-3.525365 8.757753-7.292582zm-15.750109 0h-14.2616379c-.0828449 4.275548 6.7512099 8.314833 14.2616379 8.43856zm-17.6193535 0h-16.892425c3.5865332 11.162057 15.4589283 3.14265 16.892425 0zm56.3542375 4.965901c-5.549776 10.121416-10.72484 24.145333-5.953888 39.935571h21.011685c-5.211773-12.378177-10.251088-25.535751-15.057797-39.935571zm94.119884 28.996697v10.938874h23.400163l-.450003-.277813c-4.720907-5.302021-14.033097-9.49407-22.95016-10.661061zm-12.011622.625079c-4.734021 1.429046-8.336727 4.495642-9.519296 9.75817l.034615.555625h9.484681zm-169.4088683.381992h-19.38475c-.4622321.931417-1.2247174 1.705703-2.1461687 2.222502v51.291163l7.0615875 7.188403.3461562-.243086 24.6117094-24.655874c-5.8012575-.715579-11.1569205-2.993599-15.784725-7.882935h-2.1115531v-4.236643h55.973466v-8.195474c-5.212094.418953-10.385364 2.729143-13.1539379 7.917661l-3.6346406.20836c-.7745149-3.408028-11.4070503-10.20337-18.4847438-.20836h-2.492325c-7.4298202-7.80408-10.3631538-15.601626-10.800075-23.405717zm142.4086813 1.979416c-4.524234-.135329-8.783707 2.150047-10.661612 7.952387h23.988628c-2.924007-4.652806-8.299199-7.802002-13.327016-7.952387zm-175.6742969 13.786453-6.6808156 6.667504-6.6462-6.667504-2.3538625 2.361408 6.6462 6.667504-6.6462 6.667504 2.3538625 2.361407 6.6462-6.667504 6.6808156 6.667504 2.3538625-2.361407-6.6462-6.667504 6.6462-6.667504zm88.8236939.277813v7.639848h13.707787 15.092413c1.813039-.47536-11.815371-10.836405-15.092413 0l-4.776956-.138906c.234622-3.37968-3.747692-6.281456-8.930831-7.500942zm186.266678 2.63922c-2.984387 2.334182-5.986742 4.618336-9.934684 5.556253l17.411659 37.087991c3.757429-5.732331 8.196493-10.808679 13.188553-15.349149l-15.057797-14.550439v-.069453c-.820285-1.066167-3.351701-6.219603-5.607731-12.675203zm39.184887.243086c-.654872-.005-1.258535.006634-1.938475 0-18.520145-.184345-27.081127 9.803153-28.523275 11.668132l14.469332 13.161375c4.894527-4.133441 10.268467-7.811181 15.992418-11.147233zm9.519297.20836v8.369106c3.959108-1.956423 8.043331-3.773718 12.219316-5.521527-3.129563-1.90775-7.137432-2.586391-12.219316-2.847579zm-205.270656.069453c.805232 1.476007 1.69652 2.984219 2.700019 4.479729h6.750047l.069231 4.37555h-4.534647c-.117571.138739-.227809.279068-.346156.416719l10.003915 20.697043 14.469332-12.223757c-2.044061-4.412532-4.072038-8.871059-6.09235-13.404461-7.21105.308216-14.33242.322329-20.284757-3.785198-.873343-.260333-1.792646-.418608-2.734634-.555625zm240.093975 3.993557c-7.603286 5.657244-15.105284 12.641176-21.461687 24.447514h21.461687zm-213.024556.729258c1.612512 3.598808 3.243213 7.143953 4.880803 10.661061l8.965447-7.605122c-4.741776.532623-9.378974-.29687-13.84625-3.055939zm113.29694.625079c-4.703316 3.24324-9.222355 4.300673-13.638556 4.375549l27.034803 62.40367h2.665403c.386333-10.061352 6.970458-9.931803 11.457772-9.931803h1.696166c-.231077-.482549-2.973754-6.354764-4.119259-8.785825-3.044824 1.276571-6.128816 2.731421-9.276988 4.410276 1.578439-4.329066 3.469427-8.360317 5.642347-12.119578-7.72726-16.422329-16.826007-35.73192-18.934747-40.213383-.802008.003823-1.645898-.028204-2.526941-.138906zm-66.842771 1.666876c-4.08584 2.474688-8.109683 3.651069-12.115469 3.95883 3.876462 16.713899 11.64803 38.925911 22.742465 46.186356v-43.09569c-4.683521-1.023551-8.625327-3.202602-10.626996-7.049496zm42.784912 1.562696 2.388478 5.4868h6.33466l-1.938475-4.479729c-2.269146-.20766-4.535135-.582929-6.784663-1.007071zm-70.788953 0-12.046237 10.070709c7.942297 16.906256 16.074599 33.14114 23.746318 50.284093h26.930957v-7.11895c-9.917216-8.439538-19.207075-18.663155-25.996335-50.770265-4.233253-.141095-8.440829-1.139009-12.634703-2.465587zm67.535084.694532c-1.017422.851918-2.644999 1.69928-4.603878 2.465587l.969238 2.326681h5.711578zm-110.666153 2.465587c-3.13334 3.23255-6.705329 5.86737-11.215462 7.153676l11.077 21.565208 9.830837-8.33438zm102.946869 1.041797c-1.383517.403529-2.877284.777831-4.4308 1.076525l.069231.208359h4.880803zm-158.5395625 1.250157c-5.6682006 1.575132-11.2173899 2.690883-16.4770375 2.812854 1.9656247 8.344848 4.8444927 15.54993 8.2039031 22.016653l18.6232059-20.870676c-3.813933-.602754-7.3358758-1.751476-10.3500715-3.958831zm150.7510465.347266c-.456306.057285-.923567.128272-1.384625.173633v54.38183h22.154zm28.48866 1.979416h-6.33466l3.046175 7.014769h6.33466zm-9.900069 0h-5.780809l2.873096 7.014769h5.953888zm-9.346219 0h-4.950034l2.665403 7.014769h5.157728zm-130.189365 2.153048c-1.297859-.005023-2.636304.015624-3.946182.034726l2.146169 5.035355h6.265428l-1.903859-4.445003c-.83309-.165643-1.677689-.387671-2.561556-.625078zm-48.2541816 0c-3.4746777 3.228416-22.3480137 22.263562-25.5809469 25.524038l16.2693438 16.599307 17.4116593-19.481613c-5.4089877-10.389227-8.833553-19.799687-8.1000562-22.641732zm41.7810596.069453c-.231875.003311-.460637.031826-.692313.034726v49.520108l15.334722-12.953015-14.746256-36.358733zm18.207818.937618c-1.838682.258088-3.848947.285624-6.023118.069453l1.730781 3.993557h6.265428zm-27.415575.104179-20.5270651 22.711186c5.7890396 10.181245 12.7159081 18.51827 19.0039781 26.600563h1.523087zm69.715869 1.42379-14.469331 12.119578 17.307813 35.768381h19.557828c-7.372741-16.428464-14.938132-31.895461-22.39631-47.887959zm-39.738737 3.785198h-6.33466l3.496179 8.021841h6.715431zm-9.311603 0h-6.265428l3.392331 8.021841h6.265428zm148.466415.833438h-6.334659l3.046175 7.01477h6.334659zm-9.900069 0h-5.988503l2.873097 7.01477h6.161581zm-9.553912 0h-5.226959l2.665403 7.01477h5.434653zm132.300919 5.695159-6.680816 6.667504-6.6462-6.667504-2.353862 2.361408 6.6462 6.667504-6.6462 6.667504 2.353862 2.361408 6.6462-6.667504 6.680816 6.667504 2.353862-2.361408-6.6462-6.667504 6.6462-6.667504zm-247.501719 2.743401h-6.784662l3.496178 7.987114h7.130818zm-9.865453 0h-6.265428l3.392331 7.987114h6.265428zm148.535647.868164h-6.33466l3.046175 7.01477h6.33466zm-9.900069 0h-6.196197l2.873097 7.01477h6.369275zm-9.761606 0h-5.469269l2.665403 7.01477h5.676963zm-100.835316.347266-9.761606 8.195474 13.05009 25.419859h12.703935zm-14.815487 8.056567h-6.09235l1.66155 3.750471zm-9.276988 0h-6.265428l3.392331 7.987114h2.700019l2.630788-2.222501zm148.639494.902891h-6.334659l3.046175 7.01477h6.334659zm-9.900069 0h-6.438506l2.873097 7.01477h6.611584zm-10.003915 0h-5.746194l2.665403 7.01477h5.953887zm-179.8974036.347266-16.7885781 18.543996 17.3078125 17.675831h9.9000687v-11.911218h6.9577405c-6.1905364-6.086165-12.4184689-15.339838-17.3770436-24.308609zm62.7235126 1.180704-5.330806 4.479729.450003 1.076524h7.580822zm194.712891.20836c-8.667775.714245-17.63176 2.506603-27.034804 6.077152l4.742341 10.105435h22.292463zm-191.424407 6.59805h-7.615437l3.496178 8.021841h7.996209zm-10.938537 0h-.450003l-4.292338 3.576839 1.938475 4.549182v-.10418h6.196197zm-5.573116 0h-.692312l.173078.451446zm257.609481.451446h-40.154125v9.133091h37.384875zm-103.293025.520899h-6.334659l3.046175 7.01477h6.334659zm-9.900068 0h-6.6462l2.873097 7.01477h6.819278zm-10.21161 0h-5.988503l2.665403 7.01477h6.196197zm-135.970175 4.792268-12.600087 10.556882h16.892425zm22.777082 3.507385h-8.065441l3.080791 7.049497h8.376981zm-11.492388 0h-6.265428l3.011559 7.049497h6.230813zm148.847187 1.007071h-6.334659l2.630788 6.042426h6.334659zm-9.900068 0h-6.88851l2.45771 6.042426h7.061587zm-10.453919 0h-6.265428l2.319247 6.042426h6.40389zm58.327328 20.870677h-11.769312v11.807038h11.769312zm-22.534772 0h-11.734697v11.807038h11.734697zm-22.500156 0h-11.769313v11.807038h11.769313zm-22.534772 0h-11.734697v11.807038h11.734697zm-39.288734 0h-11.769313v11.807038h11.769313zm-22.534772 0h-11.734697v11.807038h11.734697zm-22.500156 0h-11.769313v11.807038h11.769313zm-22.534772 0h-11.734697v11.807038h11.734697zm-71.8966534 9.827623c-2.2389386 7.47645.7323005 8.953891 6.8538938 9.966529.544933 9.985999 5.1233008 9.597905 12.3231626 9.271998-.839205-.701599-19.1770564-19.238527-19.1770564-19.238527zm232.4785374 13.335008h-11.769312v11.807038h11.769312zm-22.534772 0h-11.734697v11.807038h11.734697zm-22.500156 0h-11.769312v11.807038h11.769312zm-57.081166 0h-11.769312v11.807038h11.769312zm-22.534771 0h-11.734697v11.807038h11.734697zm-22.500157 0h-11.769312v11.807038h11.769312zm-22.534772 0h-11.734696v11.807038h11.734696z" transform="translate(68.351097 52.744149)"/></g></g></svg>