<svg xmlns="http://www.w3.org/2000/svg" width="74" height="75">
  <path fill="#FFE816" fill-rule="evenodd" d="M4.5 70.5h11.2V75H0V59.2h4.5v11.3zM70.2 15.8h-.7V4.5H58.3V0H74v15.8h-3.8z"/>
  <path fill="#020202" fill-rule="evenodd" d="M57.3 39.7v2.5H64l-1.2 4.2C61 48.1 57 52.3 60.7 54l-1 3.1h-19v4.2c1.2.4 2 1.4 2 2.6 0 1.5-1.3 2.8-3 2.8-1.6 0-3-1.3-3-2.8 0-1.2 1-2.2 2.1-2.6v-4.2H21.4a14 14 0 0 0-2.8-4.4c-2-2.1-4.4-4.9-4.7-5.7-.4-1 0-2.6 0-2.6l-4.8-6.3v-2.5H3.3l1.5-2-1.4-2h6.4V38l7.7 7.9h.7V44H20l.1-4.4h-5.5c-2.4-3.6-2-9.1.4-14h5.4v-2.2h-5.7l1.4-2-1.4-1.9h6.4v6h5.4c-1.4 4.8-2.2 10.5.2 14.1h-5.3v4.4h16.4v-2.7H30c-7.6-6 1.3-23.7 1.3-23.7H38V13h-5.3l1.4-1.9-1.4-2h6.4v8.6h11.5s-8.9 17.7-1.3 23.7h-9.8V44H49.9c.3-1 1.1-2 1.7-2h4.2l.1-2.4h-6c-2.4-3.6-1.5-9.3-.2-14h6.5v-2.2h-5.7l1.5-2-1.4-1.9h6.3v6h6.6c-1.3 4.8-2.1 10.5.3 14.1h-6.5zm-29.8 6.6h-1.8v1.8h1.8v-1.8zm3.5 0h-1.8v1.8H31v-1.8zm3.4 0h-1.8v1.8h1.8v-1.8zm1.6 1.8h1.8v-1.8H36v1.8zm7.8-1.8H42v1.8h1.8v-1.8zm3.4 0h-1.8v1.8h1.8v-1.8zm3.5 0h-1.8v1.8h1.8v-1.8zm3.4 0h-1.8v1.8h1.8v-1.8z"/>
</svg>
