<svg width="522" height="526" viewBox="0 0 522 526" fill="none" xmlns="http://www.w3.org/2000/svg">
<path fill-rule="evenodd" clip-rule="evenodd" d="M32.2815 414.55H26.9804L0.550293 414.645V525.051H111.611L111.409 498.706V493.625H32.2815V414.55Z" fill="#3BC6F4"/>
<path fill-rule="evenodd" clip-rule="evenodd" d="M521.868 0.222412H410.807L411.01 26.5676V31.6484H490.137V110.723H495.438L521.868 110.628V0.222412Z" fill="#3BC6F4"/>
<path fill-rule="evenodd" clip-rule="evenodd" d="M212.087 141.671L212.236 148.761H228.839H231.747L228.239 160.843C222.735 165.535 211.241 177.575 221.95 182.49L219.354 191.453H163.78V203.368C167.314 204.394 169.868 207.34 169.868 210.825C169.868 215.162 165.913 218.688 161.045 218.688C156.176 218.688 152.235 215.162 152.235 210.825C152.235 207.34 154.79 204.394 158.323 203.368V191.453H107.439C107.353 189.422 102.398 182 99.5073 178.934C93.6266 172.7 86.5202 164.879 85.656 162.364C84.6432 159.418 85.8862 155.134 85.8862 155.134L71.6678 136.996V129.811H54.9573L59.1843 124.343L55.0785 118.74H73.6495V136.666L96.2992 159.233L98.3083 159.267V154.099H103.545L103.782 141.671H87.823C80.7227 131.327 81.8101 115.598 88.9788 101.437H104.548L104.666 95.24H104.656H87.9463L92.1734 89.7714L88.068 84.1687H106.638V95.1797H106.651L106.77 101.437H122.369C118.399 114.912 116.034 131.327 123.135 141.671H107.537L107.773 154.099H121.957H155.224L155.32 146.348H147.623H132.979C110.856 129.443 136.624 78.8154 136.624 78.8154H156.161L156.328 65.345H140.759L144.986 59.8764L140.881 54.2737H159.45V65.2987L159.619 78.8154H192.85C192.85 78.8154 167.083 129.443 189.204 146.348H160.461L160.557 154.099H161.82H187.162H190.723C191.411 151.14 193.881 148.761 195.63 148.761H199.179H208.007H208.008L208.156 141.671H190.852C183.751 131.327 186.117 114.912 190.087 101.437H208.999L209.129 95.24H192.422L196.649 89.7714L192.544 84.1687H211.113V95.1904H211.114L211.245 101.437H230.314C226.343 114.912 223.979 131.327 231.079 141.671H212.087ZM125.394 160.532H120.183V165.654H125.394V160.532ZM135.403 160.532H130.174V165.654H135.403V160.532ZM145.395 160.532H140.184V165.654H145.395V160.532ZM150.175 165.654H155.402V160.532H150.175V165.654ZM172.85 160.532H167.64V165.654H172.85V160.532ZM182.857 160.532H177.632V165.654H182.857V160.532ZM192.85 160.532H187.64V165.654H192.85V160.532ZM202.859 160.532H197.63V165.654H202.859V160.532ZM140.957 419.626L140.959 419.625C152.616 444.034 175.578 464.26 215.135 464.26C258.937 464.26 288.959 441.243 288.959 390.676V223.986H239.508V389.986C239.508 414.395 229.264 420.67 213.015 420.67C196.063 420.67 188.996 409.164 181.227 395.565L140.959 419.625L140.957 419.622V419.626ZM356.083 391.378L315.818 414.395C330.299 442.643 359.971 464.264 405.889 464.264C452.867 464.264 487.837 440.203 487.837 396.26C487.837 355.46 464.17 337.327 422.135 319.541L409.774 314.31C388.581 305.243 379.398 299.313 379.398 284.666C379.398 272.811 388.581 263.744 403.064 263.744C417.193 263.744 426.374 269.671 434.852 284.666L473.355 260.255C457.108 232.008 434.501 221.195 403.064 221.195C358.909 221.195 330.652 249.096 330.652 285.713C330.652 325.468 354.318 344.3 389.996 359.294L402.356 364.528C424.963 374.29 438.384 380.219 438.384 396.958C438.384 410.907 425.32 421.022 404.83 421.022C380.458 421.022 366.682 408.467 356.083 391.378Z" fill="#010203"/>
</svg>
