<svg xmlns="http://www.w3.org/2000/svg" width="1024" height="1024">
  <path fill="#4680C2" fill-rule="evenodd" d="M669 1024H355C68 1024 0 956 0 669V355C0 68 68 0 355 0h314c287 0 355 68 355 355v314c0 287-68 355-355 355z"/>
  <path fill="#FFF" fill-rule="evenodd" d="M840 353c5-16 0-28-22-28h-75c-19 0-28 10-33 21 0 0-38 93-92 153-18 17-26 23-35 23-5 0-12-6-12-22V353c0-19-5-28-21-28H432c-12 0-19 9-19 17 0 18 27 22 30 73v110c0 24-5 28-14 28-25 0-87-93-124-199-7-21-14-29-34-29h-74c-22 0-26 10-26 21 0 20 25 118 118 248 62 88 149 136 229 136 47 0 53-11 53-29v-67c0-21 5-25 20-25 11 0 30 5 75 48 50 50 59 73 87 73h75c22 0 32-11 26-32-7-21-31-51-63-87-17-21-44-43-52-54-11-14-8-20 0-33 0 0 92-128 101-171"/>
</svg>
