<svg xmlns="http://www.w3.org/2000/svg" id="Layer_1" data-name="Layer 1" viewBox="0 0 1024 1024">
  <defs>
    <style>
      .cls-1{fill:#4267b2}.cls-2{fill:#fff}
    </style>
  </defs>
  <path d="M967 0H56A57 57 0 0 0 0 57v911a57 57 0 0 0 57 56h490V628H414V473h133V359c0-132 81-204 199-204 56 0 105 4 119 6v138h-81c-65 0-77 31-77 75v99h153l-20 155H707v396h260a57 57 0 0 0 57-57V56a57 57 0 0 0-57-56z" class="cls-1"/>
  <path id="f" d="M707 1024V628h134l20-155H707v-99c0-44 12-75 77-75h81V161c-14-2-63-6-119-6-118 0-199 72-199 204v114H414v155h133v396z" class="cls-2"/>
  <path d="M967 0H56A57 57 0 0 0 0 57v911a57 57 0 0 0 57 56h490V628H414V473h133V359c0-132 81-204 199-204 56 0 105 4 119 6v138h-81c-65 0-77 31-77 75v99h153l-20 155H707v396h260a57 57 0 0 0 57-57V56a57 57 0 0 0-57-56z" class="cls-1"/>
  <path id="f-2" d="M707 1024V628h134l20-155H707v-99c0-44 12-75 77-75h81V161c-14-2-63-6-119-6-118 0-199 72-199 204v114H414v155h133v396z" class="cls-2" data-name="f"/>
</svg>
