<svg xmlns="http://www.w3.org/2000/svg" width="60" height="60" version="1">
  <defs>
    <linearGradient id="a" x1="67%" x2="42%" y1="17%" y2="75%">
      <stop offset="0%" stop-color="#37AEE2"/>
      <stop offset="100%" stop-color="#1E96C8"/>
    </linearGradient>
    <linearGradient id="b" x1="61%" x2="75%" y1="44%" y2="80%">
      <stop offset="0%" stop-color="#EFF7FC"/>
      <stop offset="100%" stop-color="#FFF"/>
    </linearGradient>
  </defs>
  <g fill="none" fill-rule="evenodd">
    <circle cx="30" cy="30" r="30" fill="url(#a)"/>
    <path fill="#C8DAEA" d="M25 44l-2-2-2-9 22-13"/>
    <path fill="#A9C9DD" d="M25 44l1-1 4-4-5-3"/>
    <path fill="url(#b)" d="M25 36l12 9c1 1 2 0 3-1l5-23c0-2-1-3-2-3L14 29c-2 1-2 2-1 3l8 2 17-11c1 0 2 0 1 1"/>
  </g>
</svg>
